<svg width="17" height="17" viewBox="0 0 12 12" fill="none" xmlns="http://www.w3.org/2000/svg">
<path fill-rule="evenodd" clip-rule="evenodd" d="M10.2831 0.289969C10.6736 -0.100502 11.3125 -0.0945382 11.7031 0.295828C12.0936 0.686352 12.0994 1.32523 11.7089 1.71575L7.42473 5.99895L11.7089 10.2831C12.0994 10.6737 12.0936 11.3125 11.7031 11.7031C11.3125 12.0936 10.6737 12.0994 10.2831 11.7089L5.99895 7.42473L1.71575 11.7089C1.32523 12.0994 0.686352 12.0936 0.295828 11.7031C-0.0945382 11.3125 -0.100502 10.6736 0.289969 10.2831L4.57317 5.99895L0.289969 1.71575C-0.100533 1.32522 -0.0946888 0.686345 0.295828 0.295828C0.686345 -0.0946888 1.32522 -0.100533 1.71575 0.289969L5.99895 4.57317L10.2831 0.289969Z" fill="#1A2611"/>
</svg>