<svg width="21" height="16" viewBox="0 0 21 16" fill="none" xmlns="http://www.w3.org/2000/svg">
<path d="M18.8222 0.00127665C18.3957 0.01467 17.9912 0.191889 17.6947 0.495301C13.6774 4.47551 10.6356 7.77747 6.85533 11.5786L2.70409 8.10794C2.54004 7.96986 2.35009 7.86507 2.14507 7.79956C1.94006 7.73406 1.72401 7.70914 1.50925 7.72619C1.29449 7.74324 1.08523 7.80194 0.893417 7.89894C0.701605 7.99595 0.531 8.12934 0.391342 8.29154C0.251683 8.45373 0.145708 8.64154 0.0794656 8.84422C0.0132236 9.0469 -0.011987 9.26049 0.00527292 9.4728C0.0225328 9.68512 0.0819251 9.892 0.180059 10.0816C0.278193 10.2712 0.413146 10.4399 0.577213 10.5779L5.90721 15.0366C6.2216 15.3026 6.62606 15.4412 7.0395 15.4248C7.45294 15.4083 7.84482 15.238 8.13658 14.9479C12.5438 10.5816 15.6871 7.0873 20.0266 2.78794C20.2657 2.55969 20.429 2.26499 20.4949 1.94291C20.5608 1.62083 20.5261 1.28658 20.3955 0.984403C20.2649 0.682229 20.0446 0.426416 19.7636 0.25085C19.4826 0.0752833 19.1543 -0.0117588 18.8222 0.00127665Z" fill="white"/>
</svg>
